
<svg width="24px" height="24px" viewBox="0 0 512 512" xmlns="http://www.w3.org/2000/svg" fill="#ffff" >

<g transform="translate(0.000000,512.000000) scale(0.100000,-0.100000)"
 stroke="none">
<path d="M2308 4894 l-248 -225 -331 35 c-183 20 -334 35 -335 33 -2 -2 -34
-147 -70 -323 -47 -224 -71 -323 -83 -334 -9 -8 -141 -86 -293 -173 -256 -147
-276 -161 -268 -180 4 -12 65 -148 134 -302 69 -154 126 -285 126 -291 0 -7
-58 -142 -130 -302 -71 -159 -130 -295 -132 -302 -2 -7 117 -82 286 -180 l290
-166 37 -179 37 -178 -304 -646 c-167 -355 -307 -654 -310 -663 -5 -17 14 -18
313 -18 l319 0 35 -37 c20 -21 114 -130 209 -243 95 -113 176 -208 180 -213 3
-4 114 221 245 500 131 280 269 572 307 651 l68 144 80 -74 c44 -40 84 -73 89
-73 5 0 46 33 90 73 l81 74 58 -124 c32 -68 170 -361 307 -651 137 -290 251
-524 255 -520 4 4 96 114 206 243 109 129 203 238 209 242 5 4 153 8 328 8
174 0 317 3 317 6 0 4 -139 302 -310 664 l-309 658 38 178 37 179 290 166
c159 92 288 171 287 177 -1 6 -61 141 -133 301 -71 160 -130 297 -130 304 0 7
54 135 121 283 66 148 127 283 134 301 l13 31 -275 158 c-152 87 -283 165
-293 173 -13 12 -36 101 -85 336 -37 176 -68 321 -69 323 -2 1 -153 -14 -336
-34 l-332 -36 -37 34 c-79 74 -460 418 -463 417 -2 0 -114 -102 -250 -225z
m403 -565 c260 -34 494 -147 686 -332 187 -180 311 -417 354 -676 18 -109 14
-312 -10 -427 -100 -486 -488 -864 -975 -949 -113 -19 -299 -19 -412 0 -467
82 -845 433 -964 895 -68 267 -35 579 88 825 83 167 216 325 366 437 94 70
271 159 376 188 161 46 334 60 491 39z"/>
<path d="M2396 4025 c-538 -112 -857 -633 -704 -1150 83 -282 312 -514 598
-606 79 -25 117 -31 225 -36 195 -8 338 25 501 118 91 52 217 167 280 255 219
306 224 724 14 1034 -122 179 -316 317 -525 371 -104 27 -293 34 -389 14z"/>
</g>
</svg>
